<?xml version="1.0" encoding="UTF-8"?><svg id="a" xmlns="http://www.w3.org/2000/svg" width="930.31" height="171.34" viewBox="0 0 930.31 171.34"><defs><style>.b{stroke:#231f20;stroke-miterlimit:10;}.b,.c{fill:#231f20;}</style></defs><g><path class="b" d="M60.27,66.51h-20.47l-11.02,70.08H10.06l11.02-70.08H.58l2.56-16.41H62.89l-2.62,16.41Z"/><path class="b" d="M132.2,50.1l-2.62,16.41h-38.23l-2.79,17.74h31.97l-2.44,15.65h-31.98l-3.18,20.28h38.92l-2.62,16.41H61.31l13.58-86.49h57.3Z"/><path class="b" d="M158.58,102.19l-5.44,34.41h-18.24l13.58-86.49h30.08c7.58,0,13.43,.88,17.54,2.63,4.11,1.75,7.35,4.75,9.71,9,2.36,4.25,3.54,8.71,3.54,13.4,0,5.03-1.42,9.82-4.26,14.38-2.84,4.56-7.51,7.75-14.02,9.57l10.11,37.52h-18.99l-8.53-34.41h-15.1Zm5.46-36.94l-3.47,21.92h12.03c4.65,0,8.07-.33,10.28-.98,2.2-.65,4.01-1.92,5.42-3.8,1.41-1.88,2.12-4.19,2.12-6.94,0-3.59-1.08-6.19-3.25-7.79-2.16-1.6-5.77-2.41-10.81-2.41h-12.33Z"/><path class="b" d="M242.74,104.15l-5.09,32.44h-18.72l13.58-86.49h29.07c6.39,0,11.52,.63,15.37,1.9,3.85,1.27,7.18,3.94,9.98,8.02,2.8,4.08,4.2,9.07,4.2,14.99,0,4.39-.86,8.76-2.59,13.08-1.73,4.33-4.19,7.72-7.39,10.17-3.2,2.45-6.15,4.05-8.85,4.78-2.7,.74-6.79,1.11-12.27,1.11h-17.28Zm6.07-38.65l-3.69,23.51h14.01c4.81,0,8.32-1.21,10.55-3.64,2.22-2.43,3.34-5.42,3.34-8.97,0-2.7-.89-5.2-2.68-7.48-1.79-2.28-5.72-3.42-11.8-3.42h-9.72Z"/><path class="b" d="M398.77,50.1l-13.6,86.49h-19.02l11.38-72.36-32.88,72.36h-10.84l-10.9-73.12-11.5,73.12h-15.34l13.6-86.49h28.49l7.23,52.91,23.84-52.91h29.54Z"/><path class="b" d="M476.14,50.1l-2.62,16.41h-38.23l-2.79,17.74h31.97l-2.44,15.65h-31.98l-3.18,20.28h38.92l-2.62,16.41h-57.9l13.58-86.49h57.3Z"/><path class="b" d="M541.39,66.51h-20.47l-11.02,70.08h-18.72l11.02-70.08h-20.49l2.56-16.41h59.74l-2.62,16.41Z"/><path class="b" d="M566.11,102.19l-5.44,34.41h-18.24l13.58-86.49h30.08c7.58,0,13.43,.88,17.54,2.63,4.11,1.75,7.35,4.75,9.71,9,2.36,4.25,3.54,8.71,3.54,13.4,0,5.03-1.42,9.82-4.26,14.38s-7.51,7.75-14.02,9.57l10.11,37.52h-18.99l-8.53-34.41h-15.1Zm5.46-36.94l-3.47,21.92h12.03c4.65,0,8.07-.33,10.28-.98,2.2-.65,4.01-1.92,5.42-3.8,1.41-1.88,2.12-4.19,2.12-6.94,0-3.59-1.08-6.19-3.25-7.79-2.16-1.6-5.77-2.41-10.81-2.41h-12.33Z"/><path class="b" d="M658.76,50.1l-13.58,86.49h-18.72l13.58-86.49h18.72Z"/><path class="b" d="M739.19,50.1l-28.61,40.25,19.68,46.24h-20.29l-13.16-32.69-21.37,32.69h-18.67l32.81-46.24-17.39-40.26h20.16l11.23,27.12,17.4-27.12h18.22Z"/></g><g><path class="c" d="M930.31,107.79l-16.61-2.98c-4.04-.72-8-1.25-11.93-1.58,11.78-8.2,22.4-19.34,23.93-35.45l.83-8.71-8.76-.87c-14.06-1.4-28.19,2.47-41.99,11.51-1.38,.9-2.76,1.86-4.13,2.87,.33-3.09,.55-6.17,.65-9.25,.61-18.63-3.07-36.26-10.95-52.4l-5.33-10.92-8.76,8.42c-13.93,13.4-22.19,29.9-24.54,49.05-.05,.38-.09,.75-.13,1.13-1.93-10.44-4.98-21.03-12.45-30.2l-2.3-2.83-2.82,2.31-5.64,4.62-2.82,2.31,2.3,2.83c.95,1.16,1.81,2.39,2.63,3.71l-1.16,1.43c-3-1.25-6.24-2.32-9.76-3.15l-10.18-2.39-.59,9.56-1.38-1.3-2.49,2.66-4.99,5.32-2.49,2.66,2.65,2.5c3.34,3.14,6.84,5.53,10.49,7.4,1.86,6.88,5.06,13.56,9.66,20.13,.83,1.18,1.67,2.32,2.54,3.43-3.81-.55-7.84-.96-12.24-1.32l-16.91-1.38,8.6,14.56c8.7,14.73,22.39,20.58,36.29,25.31-.41,.49-.82,.99-1.23,1.52l-8.87,11.62,14.63,2.38c4.29,.68,8.13,.38,11.44-.33-.36,4.82-.81,9.58-1.17,11.63l-1.11,6.32,7.94,1.95c5.06,1.26,10.64,2.64,16.37,2.64,1.54,0,3.09-.1,4.65-.33l7.67-1.14-2.1-7.49c-.53-1.9-1.05-5.75-1.29-9.78,.67,.37,1.37,.74,2.1,1.09,.47,6.68,2.34,15.54,10.51,22.19l2.83,2.3,2.3-2.84,4.59-5.67,2.3-2.84-2.83-2.3c-1.83-1.49-3.13-3.34-3.98-5.7l1.94-.66,8.68,1.36-1.5-3.81,9.91-3.39c2.53,2.31,4.5,4.81,6,7.59l1.73,3.21,3.2-1.74,6.41-3.47,3.2-1.73-1.73-3.21c-3.02-5.61-7.16-10.13-11.99-13.89,6.07-2.64,12.3-6.61,18.3-12.6l11.88-11.87Zm-21.4,40.09l-6.41,3.47c-2.11-3.93-4.99-7.19-8.41-9.98l-24.21,8.28c.8,4.33,2.56,8.04,6.07,10.9l-4.59,5.67c-6.88-5.6-8.93-13.15-9.27-21.28l-.1-.31,.09-.03c-.16-4.44,.18-9.05,.52-13.6,.1-1.39,.2-2.79,.3-4.19-.42-.14-.84-.28-1.27-.42-13.26-4.41-25.78-8.57-33.45-16.9-10.18-11.07-12.55-24.85-14.6-38.29-2.15-.47-4.3-.9-6.43-1.32-12.28-2.46-23.87-4.77-33.55-13.89l4.99-5.32c4.06,3.82,8.6,6.24,13.58,8l13.72-16.95c-1.18-2.22-2.55-4.35-4.2-6.38l5.64-4.62c8.35,10.26,10.81,22.45,12.7,34.49,12.62,3.15,26.11,8.51,39.36,22.38,6.11,6.4,9.01,13.47,10.26,20.69,.77,4.45,.9,8.95,.78,13.37,15.13,5.22,30.77,11.9,38.49,26.24Z"/><g><path class="c" d="M812.36,63.47c-.82-4.9-1.78-9.66-3.26-14.16l-9.33,11.53c2.82,.67,5.75,1.26,8.79,1.87,1.25,.25,2.52,.51,3.8,.77"/><path class="c" d="M824.87,89.3l14.31-8.74c-6.01-3.59-12-5.84-17.95-7.5,.9,5.65,1.93,11.11,3.63,16.24"/><path class="c" d="M837.78,108.22l18.1-13.59c-.55-.68-1.14-1.35-1.77-2.01-2.77-2.91-5.55-5.39-8.33-7.54l-18.08,11.03c1.53,2.98,3.42,5.8,5.82,8.41,1.23,1.34,2.66,2.56,4.25,3.7"/><path class="c" d="M863.18,119.2c.02-6.36-.72-12.59-3.42-18.36l-15.12,11.35c5.47,2.63,11.89,4.8,18.54,7.01"/><path class="c" d="M869.31,142.12l17.13-5.85c-5.03-2.77-10.65-5-16.42-7.03-.05,.77-.11,1.54-.17,2.3-.27,3.71-.53,7.26-.55,10.59"/><path class="c" d="M832.63,97.39l12.87-7.85c1.7,1.42,3.37,2.96,4.99,4.59l-12.66,9.5c-.59-.52-1.13-1.04-1.62-1.57-1.32-1.44-2.51-2.98-3.58-4.67h0Z"/></g></g></svg>